<?xml version="1.0" encoding="utf-8"?>
<!-- Svg Vector Icons : http://www.onlinewebfonts.com/icon -->
<!DOCTYPE svg PUBLIC "-//W3C//DTD SVG 1.1//EN" "http://www.w3.org/Graphics/SVG/1.1/DTD/svg11.dtd">
<svg version="1.1" xmlns="http://www.w3.org/2000/svg" xmlns:xlink="http://www.w3.org/1999/xlink" x="0px" y="0px" viewBox="0 0 1000 1000" enable-background="new 0 0 1000 1000" xml:space="preserve">
<metadata> Svg Vector Icons : http://www.onlinewebfonts.com/icon </metadata>
<g><path style="fill:white;" d="M710,626h-42l-14-14c56-63,91-147,91-238C738,171,577,10,374,10S10,171,10,374s161,364,364,364c91,0,175-35,238-91l14,14v49l280,280l84-84L710,626z M374,626c-140,0-252-112-252-252s112-252,252-252s252,112,252,252S514,626,374,626z"/></g>
</svg>